<?xml version="1.0" encoding="utf-8"?>
<!-- Generator: Adobe Illustrator 20.0.0, SVG Export Plug-In . SVG Version: 6.00 Build 0)  -->
<svg version="1.1" id="Слой_1" xmlns="http://www.w3.org/2000/svg" xmlns:xlink="http://www.w3.org/1999/xlink" x="0px" y="0px"
	 viewBox="0 0 2295.7 1119.6" style="enable-background:new 0 0 2295.7 1119.6;" xml:space="preserve">
<style type="text/css">
	.st0{fill:#DDE8FD;}
	.st1{fill:#3662C1;}
	.st2{fill:#BED2FA;}
	.st3{fill:#7E9BD7;}
	.st4{fill:#93B3F4;}
	.st5{fill:#FFFFFF;}
	.st6{fill:#FA7269;}
	.st7{fill:#ED6966;}
	.st8{fill:#FC9290;}
	.st9{fill:#E75755;}
	.st10{fill:#120E59;}
	.st11{fill:#9E332E;}
	.st12{fill:#EB8D8D;}
	.st13{fill:#6D89CF;}
	.st14{fill:#0B0754;}
	.st15{fill:#D0DEFB;}
	.st16{fill:#EA8888;}
	.st17{fill:#A83F3F;}
	.st18{fill:#A03732;}
	.st19{fill:#030231;}
	.st20{fill:#12123C;}
	.st21{fill:#010117;}
</style>
<g>
	<path class="st0" d="M160.7,1115c0.1,0.1,2002.9-0.2,2002.9-0.2c65.9-140.6,65.8-209.4,73.3-290
		c41.4-445.6-294.2-514.1-392.5-532.7c-301-56.9-164-338.4-948.5-285.6c-71.9,4.8-241.4,43.9-299.8,69.2
		c-41,17.7-195.4,97.1-240.7,231.4c-14.3,42.4-17.7,90.2-3.3,143.4c51.1,188-82,177.1-179.3,266.7C43,836.9,56.6,1032.4,160.7,1115z
		"/>
	<g>
		<g>
			<path class="st1" d="M1353.8,1114.9h0.3c1.6,0,2.9-1.3,2.9-2.9l-4.4-189.4l-12.9-1.5l11,190.9
				C1350.7,1113.6,1352.1,1114.9,1353.8,1114.9z"/>
		</g>
		<g>
			<path class="st2" d="M1428.8,1114.9h0.3c1.6,0,2.9-1.3,2.9-2.9l-4.4-189.4l-12.9-1.5l11,190.9
				C1425.7,1113.6,1427.1,1114.9,1428.8,1114.9z"/>
		</g>
		<g>
			<path class="st1" d="M1221.8,1114.9h-0.3c-1.6,0-2.9-1.3-2.9-2.9l4.4-189.4l12.9-1.5l-11,190.9
				C1224.8,1113.6,1223.5,1114.9,1221.8,1114.9z"/>
		</g>
		<path class="st1" d="M1437.3,910.8V781.1c0-22.8-18.5-41.3-41.3-41.3h-93.5c-22.8,0-41.3,18.5-41.3,41.3v134.7L1437.3,910.8z"/>
		<path class="st2" d="M1244.4,931.3h177.3c8.6,0,15.6-7,15.6-15.6v-4.9h-192.9V931.3z"/>
		<path class="st3" d="M1223,931.3h136c5.2,0,9.5-4.2,9.5-9.5v-1.6c0-5.2-4.2-9.5-9.5-9.5h-136c-5.2,0-9.5,4.2-9.5,9.5v1.6
			C1213.5,927.1,1217.8,931.3,1223,931.3z"/>
	</g>
	<g>
		<rect x="998.4" y="227.8" class="st4" width="539" height="465.3"/>
		<g>
			<rect x="1008.7" y="235.6" class="st2" width="518.2" height="448.2"/>
			<g>
				<polygon class="st5" points="1189.8,430.6 1076.3,430.6 1076.3,288.8 1095.5,271.5 1189.8,271.5 				"/>
				<polygon class="st1" points="1076.3,288.8 1094.9,288.8 1095.5,271.5 				"/>
				<rect x="1114.9" y="285.3" class="st1" width="36.4" height="1.7"/>
				<rect x="1106.3" y="290.5" class="st1" width="53.5" height="1.7"/>
				<rect x="1089.7" y="323.8" class="st1" width="88.8" height="2.2"/>
				<rect x="1089.7" y="330.6" class="st1" width="88.8" height="2.2"/>
				<rect x="1089.7" y="337.3" class="st1" width="88.8" height="2.2"/>
				<rect x="1089.7" y="344.1" class="st1" width="88.8" height="2.2"/>
				<rect x="1089.7" y="416.4" class="st1" width="88.8" height="2.2"/>
			</g>
			<g>
				<polygon class="st5" points="1321,627.4 1207.4,627.4 1207.4,485.6 1226.6,468.2 1321,468.2 				"/>
				<polygon class="st1" points="1207.4,485.6 1226,485.6 1226.6,468.2 				"/>
				<rect x="1246" y="482" class="st1" width="36.4" height="1.7"/>
				<rect x="1237.4" y="487.2" class="st1" width="53.5" height="1.7"/>
				<rect x="1220.8" y="520.6" class="st1" width="88.8" height="2.2"/>
				<rect x="1220.8" y="527.3" class="st1" width="88.8" height="2.2"/>
				<rect x="1220.8" y="534.1" class="st1" width="88.8" height="2.2"/>
				<rect x="1220.8" y="540.8" class="st1" width="88.8" height="2.2"/>
				<rect x="1220.8" y="561.6" class="st1" width="88.8" height="2.2"/>
				<rect x="1220.8" y="568.4" class="st1" width="88.8" height="2.2"/>
				<rect x="1220.8" y="576.2" class="st1" width="88.8" height="2.2"/>
			</g>
			<g>
				<rect x="1322.3" y="271.5" class="st1" width="62.7" height="55.3"/>
				<circle class="st6" cx="1353.7" cy="278" r="2.7"/>
			</g>
			<g>
				
					<rect x="1322.3" y="346.2" transform="matrix(0.9976 -6.964348e-02 6.964348e-02 0.9976 -22.7505 95.183)" class="st5" width="62.7" height="55.3"/>
				
					<ellipse transform="matrix(0.9976 -6.964336e-02 6.964336e-02 0.9976 -21.5285 95.0547)" class="st1" cx="1352.5" cy="356.3" rx="2.7" ry="2.7"/>
			</g>
			<g>
				
					<rect x="1114" y="549.9" transform="matrix(0.9976 -6.964348e-02 6.964348e-02 0.9976 -37.4408 81.1653)" class="st5" width="62.7" height="55.3"/>
				
					<ellipse transform="matrix(0.9976 -6.971586e-02 6.971586e-02 0.9976 -36.2536 81.1227)" class="st1" cx="1144.1" cy="559.9" rx="2.7" ry="2.7"/>
			</g>
			<g>
				
					<rect x="1033.5" y="587.8" transform="matrix(0.9999 -1.024743e-02 1.024743e-02 0.9999 -6.2505 10.9446)" class="st5" width="62.7" height="55.3"/>
				
					<ellipse transform="matrix(0.9999 -1.032694e-02 1.032694e-02 0.9999 -6.1165 11.027)" class="st1" cx="1064.7" cy="597.8" rx="2.7" ry="2.7"/>
			</g>
			<g>
				
					<rect x="1410.9" y="382.6" transform="matrix(0.9844 0.1759 -0.1759 0.9844 94.662 -247.3269)" class="st5" width="62.7" height="55.3"/>
				
					<ellipse transform="matrix(0.176 -0.9844 0.9844 0.176 807.0247 1744.8999)" class="st1" cx="1445.8" cy="390.4" rx="2.4" ry="2.4"/>
			</g>
			<g>
				
					<rect x="1225.8" y="346.2" transform="matrix(0.9942 -0.1076 0.1076 0.9942 -32.928 137.4324)" class="st5" width="62.7" height="55.3"/>
				
					<ellipse transform="matrix(0.9942 -0.1076 0.1076 0.9942 -30.7781 137.0423)" class="st1" cx="1255" cy="353.8" rx="2.4" ry="2.4"/>
			</g>
			<g>
				
					<rect x="1066.3" y="479.6" transform="matrix(0.978 -0.2085 0.2085 0.978 -81.6507 240.0588)" class="st7" width="62.7" height="55.3"/>
				
					<ellipse transform="matrix(0.5441 -0.839 0.839 0.5441 89.4837 1139.7479)" class="st8" cx="1093.5" cy="487.5" rx="2.4" ry="2.4"/>
			</g>
			<g>
				<g>
					<polygon class="st5" points="1287,326.7 1227.3,326.7 1227.3,286.6 1243.8,271.5 1287,271.5 					"/>
					<polygon class="st1" points="1227,286.6 1243.3,286.6 1243.8,271.5 					"/>
				</g>
				<circle class="st1" cx="1259.3" cy="276.6" r="2"/>
			</g>
			<g>
				<g>
					<polygon class="st5" points="1461.4,655 1401.7,655 1401.7,614.9 1418.2,599.7 1461.4,599.7 					"/>
					<polygon class="st1" points="1401.4,614.9 1417.7,614.9 1418.2,599.7 					"/>
				</g>
				<circle class="st1" cx="1433.7" cy="604.8" r="2"/>
			</g>
			<g>
				<g>
					<polygon class="st5" points="1488.6,575.4 1428.9,575.4 1428.9,535.3 1445.4,520.1 1488.6,520.1 					"/>
					<polygon class="st1" points="1428.6,535.3 1444.9,535.3 1445.4,520.1 					"/>
				</g>
				<circle class="st1" cx="1460.9" cy="525.3" r="2"/>
			</g>
			<g>
				<g>
					<polygon class="st7" points="1409.8,575.4 1350.2,575.4 1350.2,535.3 1366.7,520.1 1409.8,520.1 					"/>
					<polygon class="st9" points="1349.8,535.3 1366.1,535.3 1366.7,520.1 					"/>
				</g>
				<circle class="st8" cx="1382.2" cy="525.3" r="2"/>
			</g>
			<g>
				<g>
					<polygon class="st7" points="1505.4,312.9 1445.8,312.9 1445.8,272.8 1462.3,257.6 1505.4,257.6 					"/>
					<polygon class="st9" points="1445.4,272.8 1461.7,272.8 1462.3,257.6 					"/>
				</g>
				<circle class="st8" cx="1477.8" cy="262.7" r="2"/>
			</g>
		</g>
	</g>
	<g>
		<path class="st4" d="M912.8,216.6H804.2c-6.6,0-11.9-5.4-11.9-11.9V100c0-6.6,5.4-11.9,11.9-11.9h108.6c6.6,0,11.9,5.4,11.9,11.9
			v104.7C924.7,211.2,919.3,216.6,912.8,216.6z"/>
		<path class="st2" d="M908.1,211h-99.2c-6,0-10.9-4.9-10.9-10.9v-95.6c0-6,4.9-10.9,10.9-10.9h99.2c6,0,10.9,4.9,10.9,10.9v95.6
			C919,206.1,914.1,211,908.1,211z"/>
		<g>
			<g>
				<circle class="st4" cx="858.5" cy="105.4" r="2.7"/>
				
					<ellipse transform="matrix(0.4858 -0.8741 0.8741 0.4858 355.9998 826.2784)" class="st4" cx="880.3" cy="110.6" rx="2.7" ry="2.7"/>
				
					<ellipse transform="matrix(0.8403 -0.5421 0.5421 0.8403 74.8309 507.2399)" class="st4" cx="898.3" cy="126.6" rx="2.7" ry="2.7"/>
				<circle class="st4" cx="906.2" cy="150.4" r="2.7"/>
				
					<ellipse transform="matrix(0.7072 -0.707 0.707 0.7072 138.4827 687.6847)" class="st4" cx="899.5" cy="176.6" rx="2.7" ry="2.7"/>
				
					<ellipse transform="matrix(0.7072 -0.707 0.707 0.7072 121.2213 680.5601)" class="st4" cx="882.3" cy="193.9" rx="2.7" ry="2.7"/>
				<circle class="st4" cx="858.5" cy="200.9" r="2.7"/>
			</g>
			<g>
				
					<ellipse transform="matrix(0.8741 -0.4858 0.4858 0.8741 51.6477 420.3632)" class="st4" cx="836.6" cy="110.6" rx="2.7" ry="2.7"/>
				
					<ellipse transform="matrix(0.5421 -0.8403 0.8403 0.5421 268.4192 745.8047)" class="st4" cx="818.5" cy="126.6" rx="2.7" ry="2.7"/>
				<circle class="st4" cx="810.6" cy="150.4" r="2.7"/>
				
					<ellipse transform="matrix(0.7071 -0.7071 0.7071 0.7071 114.4887 629.6971)" class="st4" cx="817.4" cy="176.6" rx="2.7" ry="2.7"/>
				
					<ellipse transform="matrix(0.7071 -0.7071 0.7071 0.7071 107.3247 646.9525)" class="st4" cx="834.6" cy="193.9" rx="2.7" ry="2.7"/>
			</g>
		</g>
		<g>
			<circle class="st4" cx="860.5" cy="150.4" r="2.7"/>
			<g>
				<rect x="860.1" y="116.1" class="st4" width="0.8" height="34.3"/>
			</g>
			<g>
				
					<rect x="857.7" y="142.1" transform="matrix(0.7863 -0.6178 0.6178 0.7863 97.2468 567.5858)" class="st4" width="23.1" height="2.2"/>
			</g>
		</g>
	</g>
	<g>
		<g>
			<path class="st8" d="M1614.1,1108.1c-0.5,7.4-10.9,7.5-22.7,6.1c-11.8-1.4-8.7,1.6-25.2,1.8c-16.5,0.2-22.2-5.2-23-7.6
				c-0.7-2.1,7.2-3.9,15.8-5.9c1.1-0.3,2.1-0.5,3.2-0.8c9.6-2.4,16-9.6,24.2-15.9c7.8-5.9,17.8-27.5,17.8-27.5l22.6-1
				c0,0-9.5,19.3-13.1,27.6c-2.1,4.9-1.2,10.9-0.3,15.5C1613.8,1103,1614.3,1105.5,1614.1,1108.1z"/>
			<path class="st10" d="M1591.4,1114.2c-11.8-1.4-8.7,1.6-25.2,1.8c-16.5,0.2-22.2-5.2-23-7.6c-0.7-2.1,7.2-3.9,15.8-5.9l0.1,0.2
				c0,0,10.6,5.7,24.3,4.3c11.1-1.1,22.4-5.7,30.1-6.6c0.5,2.5,1,5.1,0.8,7.7C1613.6,1115.5,1603.2,1115.6,1591.4,1114.2z"/>
		</g>
		<g>
			<path class="st8" d="M1770.1,1109.7c-0.5,7.4-10.9,7.5-22.7,6.1c-11.8-1.4-8.7,1.6-25.2,1.9c-16.5,0.2-22.2-5.2-23-7.6
				c-0.7-2.1,7.2-3.9,15.8-5.9c1.1-0.3,2.1-0.5,3.2-0.8c9.6-2.5,16-9.6,24.2-15.9c7.8-6,0-41.2,0-41.2l24.8-2.4
				c0,0-1.2,29.7-1.2,43.2c0,5.3,2.5,10.4,3.4,15.1C1769.8,1104.5,1770.3,1107.1,1770.1,1109.7z"/>
			<path class="st10" d="M1747.3,1115.8c-11.8-1.4-8.7,1.6-25.2,1.9c-16.5,0.2-22.2-5.2-23-7.6c-0.7-2.1,7.2-3.9,15.8-5.9l0.1,0.2
				c0,0,10.6,5.7,24.3,4.3c11.1-1.1,22.4-5.8,30.1-6.6c0.5,2.5,1,5.1,0.8,7.7C1769.5,1117,1759.1,1117.1,1747.3,1115.8z"/>
		</g>
		<path class="st11" d="M1697.6,500.6c-4.3-17.6,1.9-25.8,7.5-30.1c2.7-6.5,5.7-11.1,8.8-12.9c5.6-3.2,12.4-3.6,17.1-3.3
			c-1.2-1.3-3.6-1.7-3.6-1.7c2.9-0.4,9.5,2.5,9.5,2.5c40.8-15.7,47.2,44.4,46.4,58.3c-0.8,14-0.7,30.4,20.5,41.4
			c40.5,21-13.5,100.1-13.5,100.1c1-11.3-51-70.8-78.2-88.6c-6.6-9.7-9-26.9-9.1-28.3c1.1,13.6,3.5,21.3,5.6,25.6
			C1696.2,552.1,1694.3,524.8,1697.6,500.6z"/>
		<path class="st8" d="M1713.7,567.1c-0.1,0.1,13.1,6.9,23.1,4.2c9.4-2.6,15.5-14.7,15.4-14.7c-4-0.8-5.1-6.2-5-29.7l-1.8,0.4
			l-30.2,6c0,0,0.7,9.5,0.7,18.4C1715.9,559.2,1715.4,566.3,1713.7,567.1z"/>
		<path class="st12" d="M1715.2,533.2c0,0,0.7,9.5,0.7,18.4c16.9-0.5,25.8-15.9,29.5-24.4L1715.2,533.2z"/>
		<path class="st4" d="M1592.4,1070.3c-1.5,4.6,1.8,9.4,6.7,9.6l11.8,0.6l12.5,0.4c3.1,0.1,6.1-1.3,8.1-3.7
			c10-12.2,40.6-52.9,59.2-112.1c0.5-1.7,1.1-3.3,1.7-5c12.3-35.8,37.7-80.7,51.1-121.4c2.1-6.5,4.1-12.6,5.8-18.3
			c0.6-1.8,1.1-3.7,1.6-5.5c9.9-34.3,12.7-56.9,15.4-81l-96.8,0.8C1669.3,734.8,1648.9,893.2,1592.4,1070.3z"/>
		<path class="st5" d="M1682.9,679.1c0.2,46.1-6.8,65.9-6.8,65.9s41.5,21.1,90.7,5.6c0.6-0.2,40.8-9.4,40.8-9.4
			c-0.8-1.9-8.2-32.9-9-34.6c-10.4-22.3-18.3-32.1-19.5-39c-2.3-12.8-2.3-26.1-1.2-38.6c3-33.1,11.9-60.6,11.9-60.6
			c-13.4-3.1-26-8.4-40-13.7c-3.2,4-13,8.2-21.6,8c-9.8-0.2-13-4.4-12.5-9c-10.5,5.8-18.8,11.3-18.8,11.3
			c-8.9,15.4-26.9,30.4-28.2,54.1C1668.5,624.9,1682.9,677.8,1682.9,679.1z"/>
		<path class="st13" d="M1766.2,684.3c4.2,6,12.3,42.4,32.5,47c-10.4-26-18.3-37.3-19.5-45.3c-2.3-14.9-2.3-30.3-1.2-44.8
			c-6.8-11.8-11.8-20-11.8-20c-0.5-1.9-10.7-33.5-14-5.3C1748.9,644.1,1761.4,677.6,1766.2,684.3z"/>
		<path class="st8" d="M1709.5,541.7c0,0,39.9,0.7,40-24.2c0-24.9,5.2-41.6-20.3-43c-25.5-1.5-30.5,8-32.5,16.3
			C1694.7,499.1,1699.1,540.9,1709.5,541.7z"/>
		<path class="st11" d="M1711,473.8c0,0,10.9,29.2,27.7,33.5c16.8,4.3,24.1-0.2,24.1-0.2s-12.9-10.2-15.5-28.1
			C1747.2,479.1,1719.3,459.9,1711,473.8z"/>
		<path class="st11" d="M1713.7,476.2c0,0-8.2,6.5-10.2,12.9c-2,6.3-2.9,19.4-6.7,18.9c0,0-8.2-19.8,1-31.1
			C1707.7,465,1713.7,476.2,1713.7,476.2z"/>
		<polygon class="st8" points="1646.7,711.1 1627.8,768.6 1638.6,772.9 1669.8,722.1 		"/>
		<path class="st7" d="M1697.5,561.6c0,0-22.2,8.8-28.7,22.6c-6.4,13.8-16.2,106.1-20.1,115.6c-3.9,9.5-6.8,17-6.8,17
			s11.2,9.5,22.5,10.1C1675.8,727.5,1697.5,561.6,1697.5,561.6z"/>
		<path class="st7" d="M1715.9,553.6c0,0-23.1,57.1-23.8,68.7c-0.7,11.6-2.7,189-2.7,189s1.4,8.2-14.3,4.8
			c-15.6-3.4-19.7-6.8-19.7-6.8s15-109.4,10.9-147.5s31.3-100.1,31.3-100.1L1715.9,553.6z"/>
		<path class="st13" d="M1610.9,1080.5l13.5,0.4c2.4,0.1,4.7-1,6.3-2.8c9.1-11,40.8-52.3,59.9-112.9c0.5-1.7,1.1-3.3,1.7-5
			c12.3-35.8,37.7-80.7,51.1-121.4c2.1-6.5,4.1-12.6,5.8-18.3c0.6-1.8,1.1-3.7,1.6-5.5l-14.3-10.8c0,0-42.8,69.3-56.1,134.6
			C1668.9,995.4,1622.8,1063.6,1610.9,1080.5z"/>
		<path class="st4" d="M1735,944.8c-0.2,30,1.2,96.9,4.8,129.6c0.3,3,2.9,5.3,5.9,5.3h10.1c4.3,0,7.4,0,9.6-0.1
			c1.8,0,3.4-1.3,3.7-3.1c10-51.1,17.2-93.6,22.5-130.3c4.4-30.7,8.3-57.1,11.3-79.7c3-22.8,5.1-41.9,5.9-58.1
			c0.1-2.5,0.2-5,0.3-7.4c0-2.4,0.1-4.8,0-7l-83.7-8.2C1726.6,841.3,1735.2,926.3,1735,944.8z"/>
		<path class="st13" d="M1755.9,1079.7c3.8,0,6.8,0,8.9-0.1c2.2,0,4.1-1.6,4.6-3.8c10-50.8,17.1-93.1,22.4-129.7
			c4.4-30.7,8.3-57.1,11.3-79.7c3-22.8,5.1-41.9,5.9-58.1l-30.7,18.1c0,0,19.6,6.9,12.1,59.2
			C1782.8,938,1766.3,1072.2,1755.9,1079.7z"/>
		<path class="st7" d="M1751.9,807.8c0,0,5.9,21.3,26.3,18.6c20.4-2.7,49.4-15,49.4-15s-8.7-27.5-19.5-63.7
			c-13.1-43.8-29.4-100.2-37-135.9c-2.1-10-3.6-18.3-4.2-24.3l-16.9-32.8c0,0-25.2,56.6-26.6,70.9
			C1722,639.9,1751.9,807.8,1751.9,807.8z"/>
		<path class="st8" d="M1772.3,623.5l-22.3-68.8c0.1,0,28.2,8.4,42.4,15.5c0,0,8.8,11.4,14.3,37.7c0,0,5.8,63.2-7.1,86.3
			c0,0-40.8,8.2-106-14.3v-15c0,0,71.4,3.7,86,5.4L1772.3,623.5z"/>
		<path class="st9" d="M1752.8,655.6c0.9,23.1,6.3,68,54.8,92c0.1,0.1,0.3,0.1,0.4,0.2c-13.1-43.8-29.4-100.2-37-135.9
			C1762.1,625.2,1752.3,642.9,1752.8,655.6z"/>
		<path class="st7" d="M1749.9,554.8c0,0,41.4,2.9,51.4,25.1c10,22.2,13.1,96.1,0.5,117.8c0,0-17.5,5-48.4-0.8
			c-0.4-0.1-0.8-0.1-1.1-0.2c0,0-9.9-24.1-1-28.9c0,0,26.1,1.4,23.3-7.3C1771.9,652,1749.9,554.8,1749.9,554.8z"/>
		<g>
			<path class="st11" d="M1646.2,674.3l1.2,3.9l67.9-21.1c0,0,0.9-1,0.5-2.4c-0.5-1.5-1.7-1.5-1.7-1.5L1646.2,674.3z"/>
			<polygon class="st11" points="1641.3,678 1646.2,674.3 1647.4,678.2 			"/>
		</g>
		<path class="st8" d="M1630.5,767c0,0-17.2,9.5-19.5,16.8c-2.3,7.3-0.7,22.4,2,22.2c2.7-0.2,6.8-16.3,9.1-17.5s5.4-4.5,5.4-2
			c0,2.5-2.3,7-1.1,7.7c1.1,0.7,4.8-6.3,7.3-7.7c2.5-1.4,3.5-12.6,6-15.6C1642,768,1630.5,767,1630.5,767z"/>
		<path class="st8" d="M1693.5,665.1c0,0-15.4-9.5-21.9-8c-6.5,1.5-22.9,13.4-15,16c7.9,2.6,14.3-0.1,17.4,1.8
			c3,1.9,5.3,5.3,19.5,5.3C1707.7,680,1693.5,665.1,1693.5,665.1z"/>
	</g>
	<g>
		<path class="st14" d="M481.8,563.1c-2.6-5,56.3-22.9,57.3,26.2c0,0,110.4-2.7,57.7-64.2c-18.2-21.3-16.4-38.9-15.8-55.3
			c0.6-16.4-11.4-64.1-52.2-59.3c0,0-10.7-4.4-24.1,2.6C474.3,428.9,406.2,581.3,481.8,563.1z"/>
		<path class="st8" d="M662.3,618.1c0,0,7.2-10.9,13-11.2c5.8-0.2,16.5-3.2,15.7-1.1c-0.9,2.1-7.5,2.4-8.2,3.6
			c-0.6,1.3,9.9,3.2,12.9,3.4c3,0.2,10.1,0,9.9,1.5c-0.2,1.5-12.8,7.7-21.6,6.9c-8.9-0.9-19.8,2.6-19.8,2.6L662.3,618.1z"/>
		<path class="st15" d="M558.3,621.6c0,0,3.9,7.7,11,16.6c8.5,10.7,21.7,23.1,38.2,25.5c7.9,1.2,15.6-0.5,22.7-3.7c0,0,0,0,0,0
			c20.1-8.9,35.2-29.4,35.2-29.4c3.5-9.7-2.3-16.2-2.3-16.2s-40.5,9.1-44.4,7.2c-3.9-1.9-26.4-66.8-31.7-75
			c-5.4-8.2-23.6-12.4-23.6-12.4L558.3,621.6z"/>
		<path class="st4" d="M569.3,638.3c8.5,10.7,21.7,23.1,38.2,25.5c7.9,1.2,15.6-0.5,22.7-3.7c-0.8,0.1-20.8,2.6-28.8-11.7
			c-8.2-14.6-17-37.8-29.1-30C567.1,621.7,567.4,629.9,569.3,638.3z"/>
		<path class="st10" d="M407.1,1059.3c0,0-12.4,11.3-10,19.3s13.6,13.4,15.1,23.2c1.5,9.8,7.5,15.2,13,15.2c5.4,0,25.9,0,25.9,0
			s4-6.9-5.7-9c-9.7-2.1-13.3-13.6-12.7-24.3c0.6-10.7-0.9-25-0.9-25l-20.5-4.8L407.1,1059.3z"/>
		<path class="st10" d="M511.8,1064c0,0-4.5,47.8,1,50.5l69.5-0.1c0,0,0-8-11.2-9.8c-11.2-1.8-30.8-8.3-34.1-22.9
			C533.7,1067.2,511.8,1064,511.8,1064z"/>
		<path class="st8" d="M462.3,720.9c14.3-32.1,23.1-41.3,21.4-51.2c-1.2-7.4,3.8-138.2,3.8-138.2c1.7-0.5,5.1-1,7-1.4
			c5.9-1.3,10.7-5.4,12.7-11.1c2.4-6.8,4.4-16.9,4.3-29.5l1.8,0.4l30.8,6.1c0,0-0.7,9.7-0.7,18.8c0,0.1,0,0.2,0,0.2
			c0,7.9,5.2,14.9,12.8,17.1c3.9,1.1,7.3,2.1,7.3,2.1s11.3,32.3,13.5,65.5c2.2,33.2-20.6,47.6,0.2,113.9
			C598.2,781.4,454.4,738.7,462.3,720.9z"/>
		<path class="st16" d="M544.1,496c0,0-0.7,9.7-0.7,18.8c-17.2-0.5-26.4-16.2-30.1-24.9L544.1,496z"/>
		<path class="st8" d="M549.8,504.7c0,0-40.8,0.7-40.8-24.7c0-25.4-5.3-42.4,20.7-43.9c26-1.5,31.1,8.2,33.2,16.7
			C565,461.1,560.5,503.8,549.8,504.7z"/>
		<path class="st14" d="M548.3,435.4c0,0-11.2,29.8-28.3,34.2c-17.1,4.4-24.6-0.2-24.6-0.2s13.1-10.4,15.9-28.7
			C511.3,440.7,539.9,421.2,548.3,435.4z"/>
		<path class="st14" d="M545.6,437.8c0,0,8.3,3.1,11.7,9.1c3.3,5.9,6.2,13.7,5.5,23.3c0,0,8.4-20.3-1-31.7
			C551.7,426.4,545.6,437.8,545.6,437.8z"/>
		<path class="st0" d="M541,488.9c0,0,2.8,3.7,8.4,3.4c4.5-0.2,6.3-4.1,6.3-4.1S547.4,486.2,541,488.9z"/>
		<path class="st15" d="M458.3,589.4c0,0-1,14.6,0,32.1c0.7,11.6,12.4,27.2,14.1,31c4.2,9.7,8.9,11.2,8.9,11.2l36.5,8.9l12.8,3.1
			l40.5-12.1c0,0,18.4-51.4,11-80.4c-7.4-29-18.7-49.1-18.7-49.1s-33,32.3-76-2.7L458.3,589.4z"/>
		<path class="st17" d="M469,626.3c0.7,11.6,1.8,22.4,3.4,26.3c4.2,9.7,8.9,11.2,8.9,11.2l36.5,8.9l15.8-4.7c0,0-52.9-8-47-53.5
			L469,626.3z"/>
		<path class="st9" d="M568.5,671.6c0,0,20,62.4,21.3,83.6c1.3,21.2-38.3,301.7-39.9,311.5c-1.5,9.2-13,15.1-13,15.1
			s-5.3,3.1-12.8,1c-10.4-2.9-13.7-6.5-13.7-6.5s-15.6-200-5.9-271.4c9.7-71.4,9.8-133.2,9.8-133.2H568.5z"/>
		<path class="st7" d="M483.6,669.7c0,0-30.6,41-33.4,68.7c-2.8,27.7-4.5,125.1-10.5,152.1c-6.1,27-28.4,79-28.4,163.3
			c0,0,2.3,4.8,9.5,7.4c2.3,0.8,5.4,1.6,8.3,2.3c5.9,1.4,12-1.5,14.7-7c15.1-30.4,63.1-128.3,65.6-148.6
			c1.7-14.4,16.9-109.6,50-165.5c7.9-13.4-4.9-66.8-4.9-66.8L483.6,669.7z"/>
		<path class="st5" d="M541.9,489.6c0,0,0.7,3,8.2,2.5c0,0,6.3-0.4,6.1-3.7C556.1,488.4,550,486.1,541.9,489.6z"/>
		<path class="st10" d="M571.7,661.9c0,0-8,6.4-24,6.7c-19.1,0.4-66.4-4.9-66.4-4.9s-2.1,5.9-2,12.1c0,0,57.8,14.6,91.2,2.1
			C570.5,678,574.9,669.8,571.7,661.9z"/>
		<g>
			<path class="st5" d="M543.6,675.2c0-5.4,3.9-9.9,8.7-9.9c4.8,0,8.7,4.4,8.7,9.9c0,5.4-3.9,9.9-8.7,9.9
				C547.5,685.1,543.6,680.6,543.6,675.2z M546.5,675.2c0,3.8,2.6,7,5.8,7c3.2,0,5.8-3.1,5.8-7c0-3.8-2.6-7-5.8-7
				C549.1,668.2,546.5,671.4,546.5,675.2z"/>
		</g>
		
			<rect x="444.8" y="604.8" transform="matrix(-0.7542 -0.6567 0.6567 -0.7542 416.5845 1472.9181)" class="st18" width="78.5" height="107.4"/>
		<path class="st8" d="M494.7,673.4c0,0,21.7,2.5,21.6,7.7c-0.1,5.1-5.4,15.7-8.1,16.2c-2.7,0.5-17.6-14.3-17.6-14.3L494.7,673.4z"
			/>
		<path class="st15" d="M487.4,531.6c0,0-29,2-40,29c-11.1,27-32.2,72.3-32.2,79.9c0,7.6,11.8,31.1,74.9,44.6c0,0,6.5-6.9,6.1-12.3
			c0,0-39.4-33.9-39.3-37.8c0.2-7.5,6.5-17.4,41.1-52C507.5,573.5,487.4,531.6,487.4,531.6z"/>
	</g>
	<g>
		<g>
			<g>
				<path class="st1" d="M807.3,1115.4H807c-1.6,0-2.9-1.3-2.9-2.9l4.4-189.4l12.9-1.5l-11,190.9
					C810.3,1114.1,808.9,1115.4,807.3,1115.4z"/>
			</g>
			<g>
				<path class="st2" d="M732.3,1115.4H732c-1.6,0-2.9-1.3-2.9-2.9l4.4-189.4l12.9-1.5l-11,190.9
					C735.3,1114.1,733.9,1115.4,732.3,1115.4z"/>
			</g>
			<g>
				<path class="st1" d="M939.3,1115.4h0.3c1.6,0,2.9-1.3,2.9-2.9L938,923.1l-12.9-1.5l11,190.9
					C936.2,1114.1,937.6,1115.4,939.3,1115.4z"/>
			</g>
			<path class="st1" d="M723.8,911.3V781.6c0-22.8,18.5-41.3,41.3-41.3h93.5c22.8,0,41.3,18.5,41.3,41.3v134.7L723.8,911.3z"/>
			<path class="st2" d="M916.7,931.8H739.4c-8.6,0-15.6-7-15.6-15.6v-4.9h192.9V931.8z"/>
			<path class="st1" d="M938.1,931.8H802c-5.2,0-9.5-4.2-9.5-9.5v-1.6c0-5.2,4.2-9.5,9.5-9.5h136c5.2,0,9.5,4.2,9.5,9.5v1.6
				C947.5,927.6,943.3,931.8,938.1,931.8z"/>
		</g>
		<g>
			<path class="st10" d="M933,879c-13.4,23.3-30.2,32.3-30.2,32.3h-70.1C832.7,911.3,943.2,861.2,933,879z"/>
			<g>
				<path class="st8" d="M879.2,1059.4c-1.8,2.1-2.1,4.4-1.2,6.9c0,0,0,0,0,0c1.7,4.6,7.2,9.8,13.6,14.9c0.8,0.7,1.5,1.3,2.2,1.8
					c0.2,0.1,0.3,0.3,0.5,0.4c0.1,0.1,0.3,0.2,0.4,0.3c6,5.5,3.7,6.8,14.5,18c12.3,12.8,20.7,13,23.1,11.8c2-1-2.1-7.8-6.7-15.4
					c-0.2-0.4-0.4-0.7-0.7-1.1c-0.6-1-1.2-2-1.8-3.1c-5.4-9.1-4-13.4-2.7-27.1c1-11.1,17.2-61.8,17.2-61.8l-23.5-4
					c0,0-7.1,40.4-14.9,46.6c-4.2,3.3-8.8,3.4-12.8,5.8c-0.3,0.2-0.6,0.3-0.8,0.5C883.4,1055.7,881,1057.3,879.2,1059.4z"/>
				<path class="st10" d="M879.2,1059.4c-1.8,2.1-2.1,4.4-1.2,6.9c0,0,0,0,0,0c2,4.6,7.4,9.7,13.6,14.9c0.8,0.7,1.5,1.3,2.2,1.9
					c0.2,0.1,0.3,0.3,0.5,0.4c0.1,0.1,0.3,0.2,0.4,0.3c6,5.5,3.7,6.8,14.5,18c12.3,12.8,20.7,13,23.1,11.8c2-1-2.1-7.8-6.7-15.4
					c-2.4-0.9-13.5-5.4-21.8-16.1c-7.4-9.4-12.3-21.5-17.3-28.5c-0.3,0.2-0.6,0.3-0.8,0.5C883.4,1055.7,881,1057.3,879.2,1059.4z"/>
				<path class="st8" d="M1068.6,1044.7c1.5,7.2,11.8,6,23.3,3.2s8.8,0.5,25.2-1.3c16.4-1.8,21.4-7.9,21.9-10.4
					c0.4-2.2-7.7-2.9-16.4-3.9c-1.1-0.1-2.2-0.3-3.3-0.4c-9.8-1.2-17-7.6-26-12.8c-8.5-4.9-21.1-25-21.1-25l-22.5,1.8
					c0,0,11.8,18,16.4,25.8c2.7,4.6,2.5,10.7,2.2,15.4C1068.2,1039.6,1068,1042.2,1068.6,1044.7z"/>
				<path class="st10" d="M1091.9,1047.9c11.5-2.8,8.8,0.5,25.2-1.3c16.4-1.8,21.4-7.9,21.9-10.4c0.4-2.2-7.7-2.9-16.4-3.9l-0.1,0.2
					c0,0-9.9,7-23.5,7.3c-11.1,0.3-23-2.9-30.6-2.8c-0.2,2.5-0.3,5.2,0.2,7.7C1070,1052,1080.3,1050.8,1091.9,1047.9z"/>
				<path class="st19" d="M982.2,900.6l-21.1,56.7l-27.5,74c0,0-7.5,0.7-14.6-1.3c-6.6-1.9-14.1-6.9-14.1-6.9s7.6-79.5,21.9-125.1
					c3.7-11.7,7.7-21.2,12.3-26.5C961.1,845.4,982.2,900.6,982.2,900.6z"/>
				<path class="st10" d="M960.8,810.6c-13.8-4.5-53.2,1.3-92.7,9l-8.3-13.7l-85.4-6.7c0,0-28.2,62.5-12.8,102.3
					c2.3,5.9,6.8,9.6,14.5,9.7c0,0,1.2,0,1.2,0c0,0,50.8,0,67.3,0c42.5,0,89.9-29.2,96-30.4c10-2,14.1,18.1,24.1,39.1
					c10,21.1,94.4,93.4,94.4,93.4s13,0.1,18.3-1.9c5.8-2.2,7.9-5,7.9-5S991.9,820.7,960.8,810.6z"/>
				<path class="st10" d="M856.5,557.3c-10.9-5.7-27.6-6.5-30.3-6.9c-32.4-4.3-51.8,42.7-53,56.9c-2.1,26.3-16,30.3-35.6,46.7
					c-39.2,33-27.7,71.3-6.3,85.5c12.9,8.5,35.5,0,35.5,0c0.3,0.2,62-34.5,92.4-51.2C904.9,681.9,884.3,572,856.5,557.3z"/>
				<path class="st8" d="M833.8,674.1c0.1,0.1-15,5.2-25.1,0.8c-9.5-4.2-16.7-19.8-16.5-19.8c4.3-0.2,9.1-4,12.7-28.8l1.8,0.7
					l30.9,11.1c0,0-2.2,9.9-3.7,19.4C832.8,665.4,832.1,673,833.8,674.1z"/>
				<path class="st12" d="M837.7,638.1c0,0-2.2,9.9-3.7,19.4c-17.8-3.2-24.7-20.9-27.2-30.5L837.7,638.1z"/>
				<path class="st8" d="M842.3,648c0,0-42.3-5.7-38.4-32c3.9-26.3,1.1-44.7,28.3-42.2c27.2,2.5,30.9,13.3,31.7,22.4
					C864.8,605.3,853.4,648.8,842.3,648z"/>
				<path class="st10" d="M862.5,581.8c0,0-27.1,23.3-45.5,25.2c-18.4,1.9-25.4-4-25.4-4s10.9-9,17.4-23.6c1.9-4.3,6-7.2,10.7-7.6
					C832.8,570.6,857.7,570.1,862.5,581.8z"/>
				<path class="st10" d="M845.5,579.7c0,0,9.1,8.8,11.9,15.3c2.8,6.3,3.6,21.3,1.4,27.2c0,0,14.1-27.5,6.1-40.8
					C856.5,567.2,845.5,579.7,845.5,579.7z"/>
				<path class="st5" d="M869.5,736.5c-1.3,85.7-0.4,67.8-9.7,75.9c-2.3,2-8.6,3.1-17,3.7c-26.3,1.7-72.4-2.6-74.2-7.4
					c-6.1-16.8-1.8-22-6.8-47.7c-0.5-2.7-1.2-5.7-1.9-8.9c-4.2-17.7-8.3-23.7,6.6-52c13.6-25.7,27.6-46.6,28.9-45.8
					c35.8,21.2,38.7,3.4,38.7,3.4S870.1,694.7,869.5,736.5z"/>
				<path class="st10" d="M961.1,957.3l-27.5,74c0,0-7.5,0.7-14.6-1.3c-6.6-1.9-14.1-6.9-14.1-6.9s7.6-79.5,21.9-125.1L961.1,957.3z
					"/>
				<path class="st5" d="M834,657.5c0,0,36.8,6.2,41.1,22.1c4.3,15.8,29.8,109,29.8,109s-18.7,3.4-27.4-5.3
					c-8.6-8.6-30.1-80.2-30.1-80.2L834,657.5z"/>
				<path class="st0" d="M842.8,816c-26.3,1.7-72.4-2.6-74.2-7.4c-6.1-16.8-1.8-22-6.8-47.7l12.7-35.7c0,0-2.1,39.7,9.6,50.2
					c11.7,10.4,48,20.2,53.7,28.9C840.5,808.4,842.3,812.6,842.8,816z"/>
				<path class="st8" d="M812.7,799.3c0,0,25.9-5.8,30.1-3.5c4.2,2.3,14.4,10.7,15.7,13.6c1.3,2.9-9.3-2.2-12.8-3.1
					c-2.2-0.6-8.1,1.4-11,2.4c-12.2,4.1-19.7,2-19.7,2L812.7,799.3z"/>
				<path class="st5" d="M795.3,654.1c0,0-34.8,2.1-46.8,18.9c-17,23.6-50.6,124.4-31.3,137.9c21.7,15.1,98.8,4,98.8,4
					s2.6-12-1-17.8s-61.6-15.2-64.2-17.8c-2.7-2.7,33.5-52.2,33.5-60.2C784.2,710.9,795.3,654.1,795.3,654.1z"/>
				<path class="st8" d="M844,803.1c0,0,5.4,7,7.2,7.8c1.8,0.8,2.9,0.6,2.9,0.6l-3.7-6.6L844,803.1z"/>
				<path class="st8" d="M842.8,795.8l15.8,7.7c0,0-0.7,1.1-2.6,1c-1.9-0.1-6.8-1.9-6.8-1.9L842.8,795.8z"/>
			</g>
			<g>
				<g>
					<polygon class="st7" points="851.3,821.6 976.1,821.6 1013.7,728.2 889,728.2 					"/>
					<polygon class="st9" points="977.6,818 812.7,818 812.7,821.6 976.1,821.6 					"/>
				</g>
				<path class="st5" d="M944.6,774.9c0.9-3.3-1-5.9-4.2-5.9c-3.3,0-6.7,2.7-7.6,5.9s1,5.9,4.2,5.9
					C940.2,780.9,943.7,778.2,944.6,774.9z"/>
			</g>
		</g>
	</g>
	<g>
		<g>
			<path class="st5" d="M1503.4,1118.9h0.4c2.1,0,3.9-1.9,3.8-4.1l-5.8-265.2l-17-2.1l14.5,267.3
				C1499.4,1117.1,1501.2,1118.9,1503.4,1118.9z"/>
		</g>
		<g>
			<path class="st5" d="M813.3,1118.9H813c-2.1,0-3.9-1.9-3.8-4.1l5.8-265.2l17-2.1l-14.5,267.3
				C817.3,1117.1,815.5,1118.9,813.3,1118.9z"/>
		</g>
		<path class="st5" d="M1521.1,854.5H798.5c-7.5,0-13.6-6.1-13.6-13.6v-4.8c0-7.5,6.1-13.6,13.6-13.6h722.6
			c7.5,0,13.6,6.1,13.6,13.6v4.8C1534.7,848.4,1528.6,854.5,1521.1,854.5z"/>
	</g>
	<path class="st5" d="M637,368c-2.8-68.1,54.3-98.3,112.7-98.3c58.3,0,121.8,15.1,127.3,105.6c3.5,58.2-27.5,94.1-116.9,94.1
		c-30.2,0-53.6-4.8-71.5-13.2l-44.7,39.7l22-54.9C646.4,422.9,638.2,397.4,637,368z"/>
	<g>
		<path class="st10" d="M1963.1,1118.6c0,0,1.6-12.8,5.4-20.4c3.8-7.6,28-2.8,28-2.8s4.8,4.1,5.9,23.5L1963.1,1118.6z"/>
		<path class="st10" d="M1880.7,1118.4c5.7-3.5,2.5-29.4,2.5-29.4s-26.5-21.2-30.1-5s-25.2,23.5-37.4,25.5
			c-8.5,1.4-11.1,6.1-11.9,8.8H1880.7z"/>
		<path class="st14" d="M1935.6,930.1c-1.1,5.9-1.8,10.8-1.9,14.3c-2.5,48-40.4,157.9-47.2,160.4c-10.5,4-27.1-4.5-35.7-7.2
			c-3.6-1.1-6-4.8-5.2-8.4c18.8-86.5,25.7-210.9,28.2-284.6c1.3-37.1,7.6-62.8,7.6-62.8s92.6-24.7,93.2,6.5
			C1975,776,1943.8,884.5,1935.6,930.1z"/>
		<path class="st19" d="M1935.6,930.1l-61.9-125.6c1.3-37.1,7.6-62.8,7.6-62.8s92.6-24.7,93.2,6.5
			C1975,776,1943.8,884.5,1935.6,930.1z"/>
		<path class="st14" d="M1915,748.4l49,354.9c0,0,21.5,5.2,38.2,1c0,0,14.3-188.7,13.1-234.4c-1.2-45.6,10.3-122.1-2.6-130.5
			C1999.8,731,1915,748.4,1915,748.4z"/>
		<path class="st15" d="M2022.2,742.5c0.2,3.2-1.8,6.1-4.9,7c-6.8,2-14.7,3.4-29.9,6.5c-14.3,3-33.5,5.6-57,5.7
			c-37.5,0.2-51.7-12.7-51.7-12.7c-1.6,0,0.9-7.8,3.1-45.1c0.8-12.6,1.5-28.7,2-48.9c0.5-18.2,0.8-39.9,0.8-65.6
			c0-30.9,47.9-64.1,48.7-64.1l0,0c0,4.4,7,12.7,17.8,13.4c12.8,0.8,28.5-5.5,28.5-12.9c0-0.1,23.2,37.1,31.4,76.6
			C2015.2,622.4,2013.6,621.8,2022.2,742.5z"/>
		<path class="st15" d="M1933.3,525.4c0,0-44.5-0.4-55.2,14.6c-10.7,15-34.2,95.8-21.9,122.6c12.2,26.9,35.2-11.1,47.9-27.6
			C1916.8,618.6,1933.3,525.4,1933.3,525.4z"/>
		<path class="st8" d="M1932.9,518.6l0,4.6c0,0-1.3,14.4,16.5,16.5c17.7,2.1,30.8-2.7,30.4-13.8c-1.6-8.6-3.1-17.4-3.2-24.5
			c0-2.6,0.1-5.4,0.6-8.6l-34.3-0.7l-10.1,1.7L1932.9,518.6z"/>
		<path class="st16" d="M1932.7,493.7l0.1,24.9c3.6,1.7,7.8,2.7,12.4,2.7c15.8,0,26-11.6,31.3-20c0-2.6,0.1-5.4,0.6-8.6l-34.3-0.7
			L1932.7,493.7z"/>
		<path class="st8" d="M1979.8,487.2c-4,21.4-31.6,20.7-43.6,19.4c-3.4-0.4-5.5-0.8-5.5-0.8c-3.8-1-5.9-7-6.9-14.8
			c-2-15.5,0.5-38.2,3.1-44c3.9-8.7,11.3-18.2,39.2-11.4C1994,442.4,1984.9,459.8,1979.8,487.2z"/>
		<path class="st5" d="M1887.9,585.5c0,0-17.2,38-16.7,49.4c0,0,8.5-0.3,16.7,2.1C1901.3,641.1,1887.9,585.5,1887.9,585.5z"/>
		<path class="st10" d="M1918.4,426.6c0,0,12.3-0.9,26.7-7.2c11.7-5.1,26.5,0.5,31.3,3c-0.1-0.8-0.4-1.8-1.2-2.9
			c0,0,2.2,1.5,2.5,3.7c0.2,0.2,0.3,0.3,0.3,0.3c0,0,2.4-0.4,4,0.3c0,0-1.1-0.2-1.5,0.5c0,0.1-0.1,0.1-0.2,0.2
			c18.3,8.8,20,37.8,14.1,44.4c-7.1,8-17.8,26.3-17.8,26.3s-0.9-4.4,0.4-11.5c1.3-7.1-4.8-7.1-12.6-10.3c-7.7-3.2-1.3-12.2-8-17.7
			c-6.8-5.5-31.6-2.3-31.2-6.4C1916.1,446,1918.4,427.5,1918.4,426.6z"/>
		<path class="st5" d="M1985.4,656.7c-7.3,29.2-85.8,44.2-103.6,47.3c0.8-12.6,1.5-28.7,2-48.9L1985.4,656.7z"/>
		<path class="st8" d="M1968.2,666.2c0.7,0,17.5-2.5,20.4-4c3-1.5,16.7-20.9,7.7-25.9c-9-5-33,15-33,15L1968.2,666.2z"/>
		<path class="st15" d="M1866.5,671.9c0,0,64.6,3.5,108-5.8c0,0,1.1-12.5-12.5-18.1c0,0-67.6-14.3-83.8-10.3
			C1861.9,641.7,1866.5,671.9,1866.5,671.9z"/>
		<path class="st15" d="M2014.9,621.2c-13.4,16.2-30.9,29.4-50.3,32.5l0,0c-0.2-0.2-5.9-8.9-4.8-21.6c0.5-5.9,2.4-12.6,7-19.8
			c1.4-2.2,2.7-4.8,3.8-7.7c10.6-26.9,9-78.8,9-78.8s44.8,4.7,58.8,24.6C2047,562.7,2036.1,595.7,2014.9,621.2z"/>
		<path class="st16" d="M1936.2,506.6c-3.4-0.4-5.5-0.8-5.5-0.8c-3.8-1-5.9-7-6.9-14.8c7.1,1.8,10.4,7.2,11.7,9.6
			C1936.2,501.6,1936.3,504,1936.2,506.6z"/>
		<path class="st8" d="M1918.2,518.7c0,0-15.5-25.5-3.4-26.7c12-1.1,16.9,7,18.6,10c1.7,3-0.5,16.5-0.5,16.5L1918.2,518.7z"/>
		<path class="st15" d="M1977.2,631.2c-0.5,3.2-1.4,6.2-2.6,8.9c-3.8,8.4-9.9,13.6-9.9,13.6l0,0c-40.2-18.1-48.3-80.5-49.7-114.7
			c-0.5-13.8,0-23,0-23c18.1-6,23.2,4.4,23.2,4.4s21.4,50.9,32.5,84.2C1975,617.4,1977.7,627.5,1977.2,631.2z"/>
		<path class="st5" d="M2014.9,621.2c-13.4,16.2-30.9,29.4-50.3,32.5l0,0c-40.2-18.1-48.3-80.5-49.7-114.7c0,0,19,69,44.9,93.1
			c4.7,4.4,9.6,7.3,14.6,8c0,0,32.6-9.2,39.5-17.9C2014.5,621.6,2014.8,621.3,2014.9,621.2z"/>
	</g>
	<g>
		<g>
			<polygon class="st20" points="1282.8,822.5 1157.9,822.5 1120.3,729.1 1245,729.1 			"/>
			<polygon class="st20" points="1156.4,818.8 1321.3,818.8 1321.3,822.5 1157.9,822.5 			"/>
		</g>
		<path class="st5" d="M1189.4,775.8c-0.9-3.3,1-5.9,4.2-5.9s6.7,2.7,7.6,5.9c0.9,3.3-1,5.9-4.2,5.9S1190.4,779.1,1189.4,775.8z"/>
	</g>
	<path class="st21" d="M2295.7,1116.5v0.8c0,1.3-1.2,2.3-2.6,2.3H2.6c-1.4,0-2.6-1-2.6-2.3v-0.8c0-1.3,1.2-2.3,2.6-2.3h2290.5
		C2294.5,1114.2,2295.7,1115.2,2295.7,1116.5z"/>
</g>
</svg>
